<svg xmlns="http://www.w3.org/2000/svg" viewBox="0 0 1059.08 1059.95"><defs><style>.a{font-size:168px;font-family:Playlist-Script, Playlist;}.b{fill:#51a045;}</style></defs><text class="a" transform="translate(424.29 142.8)">Une</text><text class="a" transform="translate(232.55 449.58)">parenthèse</text><text class="a" transform="translate(394.55 709.02)">pour</text><text class="a" transform="translate(457.55 980.99)">Soi</text><path class="b" d="M60.14,623.27C39.3,425.94,134.62,245.83,286.32,164.82,124,238.86,19.65,424.45,41.22,628.71,67,872.79,263,1053.26,482.93,1039.3,270.37,1039.41,85.28,861.24,60.14,623.27Z" transform="translate(-38.41 -48.27)"/><path class="b" d="M1066.22,463.32c41.55,201.38-54.9,400.19-226.17,503.9,184.4-97.9,290.93-303.56,247.94-512-51.39-249.09-297.28-410-554.53-366.73C783.23,60.47,1016.13,220.47,1066.22,463.32Z" transform="translate(-38.41 -48.27)"/></svg>